<svg xmlns="http://www.w3.org/2000/svg" viewBox="24.61 34.55 115.65 111.72" aria-hidden="true">
  <path fill="#ffffff" stroke="#ffffff" stroke-width="0.75" stroke-miterlimit="10" d="M140.22,116.89v-31.46s0-25.29,0-25.29v-25.59s-25.87,0-25.87,0c-.3,0-.36.35-.31.38v25.24s.04,25.25.04,25.25l-.04,36.87-35,.04-27.72-.06.09-36.28.13-.23c.03-.06-.13-.21-.16-.19v-.11s.02-13.52.02-13.52l-.03-11.63s.12-.02.16-.02l27.39-.04,8.8.04.13-.13v-25.6s-8.93.05-8.93.05h-27.63s-26.68-.03-26.68-.03l.02,25.72v25.18s0,60.79,0,60.79l26.65-.03h27.78s35,0,35,0l26.2.03-.03-29.36Z"/>
  <rect fill="#ffffff" stroke="#ffffff" stroke-width="0.75" stroke-miterlimit="10" x="72.44" y="78.87" width="23.57" height="23.05"/>
</svg>
